HIERARCHY
ROOT Hips
{
	OFFSET -0.001795 -0.223333 0.028219
	CHANNELS 6 Xposition Yposition Zposition Zrotation Yrotation Xrotation 
	JOINT LeftUpLeg
	{
		OFFSET 0.069520 -0.091406 -0.006815
		CHANNELS 3 Zrotation Yrotation Xrotation
		JOINT LeftLeg
		{
			OFFSET 0.034277 -0.375199 -0.004496
			CHANNELS 3 Zrotation Yrotation Xrotation
			JOINT LeftFoot
			{
				OFFSET -0.013596 -0.397961 -0.043693
				CHANNELS 3 Zrotation Yrotation Xrotation
				JOINT LeftToe
				{
					OFFSET 0.026358 -0.055791 0.119288
					CHANNELS 3 Zrotation Yrotation Xrotation
					End Site
					{
						OFFSET 0.000000 0.000000 0.000000
					}
				}
			}
		}
	}
	JOINT RightUpLeg
	{
		OFFSET -0.067670 -0.090522 -0.004320
		CHANNELS 3 Zrotation Yrotation Xrotation
		JOINT RightLeg
		{
			OFFSET -0.038290 -0.382569 -0.008850
			CHANNELS 3 Zrotation Yrotation Xrotation
			JOINT RightFoot
			{
				OFFSET 0.015774 -0.398415 -0.042312
				CHANNELS 3 Zrotation Yrotation Xrotation
				JOINT RightToe
				{
					OFFSET -0.025372 -0.048144 0.123348
					CHANNELS 3 Zrotation Yrotation Xrotation
					End Site
					{
						OFFSET 0.000000 0.000000 0.000000
					}
				}
			}
		}
	}
	JOINT Spine
	{
		OFFSET -0.002533 0.108963 -0.026696
		CHANNELS 3 Zrotation Yrotation Xrotation
		JOINT Spine1
		{
			OFFSET 0.005487 0.135180 0.001092
			CHANNELS 3 Zrotation Yrotation Xrotation
			JOINT Spine2
			{
				OFFSET 0.001457 0.052922 0.025425
				CHANNELS 3 Zrotation Yrotation Xrotation
				JOINT Neck
				{
					OFFSET -0.002778 0.213870 -0.042857
					CHANNELS 3 Zrotation Yrotation Xrotation
					JOINT Head
					{
						OFFSET 0.005152 0.064970 0.051349
						CHANNELS 3 Zrotation Yrotation Xrotation
						End Site
						{
							OFFSET 0.000000 0.000000 0.000000
						}
					}
				}
				JOINT LeftShoulder
				{
					OFFSET 0.078845 0.121749 -0.034090
					CHANNELS 3 Zrotation Yrotation Xrotation
					JOINT LeftArm
					{
						OFFSET 0.090977 0.030469 -0.008868
						CHANNELS 3 Zrotation Yrotation Xrotation
						JOINT LeftForeArm
						{
							OFFSET 0.259612 -0.012772 -0.027456
							CHANNELS 3 Zrotation Yrotation Xrotation
							JOINT LeftHand
							{
								OFFSET 0.249234 0.008986 -0.001171
								CHANNELS 3 Zrotation Yrotation Xrotation
								End Site
								{
									OFFSET 0.000000 0.000000 0.000000
								}
							}
						}
					}
				}
				JOINT RightShoulder
				{
					OFFSET -0.081759 0.118833 -0.038615
					CHANNELS 3 Zrotation Yrotation Xrotation
					JOINT RightArm
					{
						OFFSET -0.096012 0.032551 -0.009143
						CHANNELS 3 Zrotation Yrotation Xrotation
						JOINT RightForeArm
						{
							OFFSET -0.253742 -0.013329 -0.021401
							CHANNELS 3 Zrotation Yrotation Xrotation
							JOINT RightHand
							{
								OFFSET -0.255298 0.007772 -0.005559
								CHANNELS 3 Zrotation Yrotation Xrotation
								End Site
								{
									OFFSET 0.000000 0.000000 0.000000
								}
							}
						}
					}
				}
			}
		}
	}
}
MOTION
Frames: 12
Frame Time: 0.050000
0.000000 0.953162 0.000000 -1.171621 13.163181 2.928312 5.816968 -0.185080 4.191072 -5.272769 0.266477 -6.889694 7.369508 17.068801 12.919276 0.000000 0.000000 0.000000 -3.855989 0.290596 -4.283727 3.580577 -0.492267 0.823406 -3.416814 -9.692518 10.506909 0.000000 0.000000 0.000000 7.111573 -0.461310 2.711753 -3.966240 1.854921 -20.639526 -3.878690 -5.086297 27.860044 7.645625 -2.452512 -26.217779 0.000000 0.000000 0.000000 -12.402083 -16.196968 6.362918 -39.837950 -34.418681 4.305823 10.659661 -48.110283 -2.560709 0.000000 0.000000 0.000000 24.131152 -4.045847 -2.781669 54.747510 7.233426 -4.815366 5.567782 31.213667 3.391496 0.000000 0.000000 0.000000 
-0.000147 0.952115 0.002663 -1.458969 13.032809 3.509192 5.874874 -0.198410 4.051792 -4.387055 0.241100 -7.697230 8.227636 18.391271 14.059710 0.000000 0.000000 0.000000 -4.325171 0.278871 -4.273757 4.688682 -0.646025 -0.155264 -3.067667 -9.139766 11.865289 0.000000 0.000000 0.000000 7.726147 -0.371745 1.415987 -4.419701 1.940130 -21.163146 -3.770285 -5.334522 29.119074 8.876007 -3.163184 -26.909737 0.000000 0.000000 0.000000 -12.230839 -14.783822 5.802304 -40.031515 -33.619760 3.939366 12.478278 -50.985799 -3.481244 0.000000 0.000000 0.000000 23.424786 -5.137437 -3.509767 55.667206 6.999426 -4.994376 6.500496 32.237993 3.802215 0.000000 0.000000 0.000000 
-0.000384 0.951771 0.004760 -1.636776 13.003122 3.623094 6.509902 -0.264323 3.617613 -4.801443 0.270008 -6.634877 8.614076 18.968744 14.587053 0.000000 0.000000 0.000000 -4.148423 0.298229 -4.434775 4.374350 -0.602527 0.135263 -2.499516 -8.070244 12.223534 0.000000 0.000000 0.000000 8.637104 -0.372457 0.970052 -4.993383 2.080259 -21.144141 -3.828572 -4.023320 29.117473 9.667506 -3.699286 -25.284524 0.000000 0.000000 0.000000 -12.015393 -14.594591 5.489931 -40.413164 -33.076496 3.782692 10.653734 -52.565453 -2.892409 0.000000 0.000000 0.000000 23.950746 -6.056624 -3.740207 55.431597 6.856827 -5.138764 8.153252 31.964970 4.328997 0.000000 0.000000 0.000000 
-0.000729 0.951503 0.006783 -1.808626 13.009019 3.768310 6.781810 -0.290944 3.733286 -4.932499 0.278031 -6.342184 9.263266 19.745084 13.912206 0.000000 0.000000 0.000000 -4.340736 0.280417 -4.239012 5.365548 -0.733832 -0.795361 -2.232390 -7.669428 13.064337 0.000000 0.000000 0.000000 9.030069 -0.311405 0.239777 -5.458167 2.194465 -21.060551 -3.437751 -4.125009 29.342724 10.354546 -4.254221 -24.647036 0.000000 0.000000 0.000000 -12.523026 -14.461507 5.471664 -39.978132 -31.586262 3.211881 9.939585 -53.517709 -2.601767 0.000000 0.000000 0.000000 24.358356 -7.092058 -4.471417 54.890441 6.380739 -5.334858 9.420410 32.352341 4.755922 0.000000 0.000000 0.000000 
-0.001147 0.951307 0.008458 -1.666340 12.828936 3.867649 6.493471 -0.263179 3.585465 -4.550267 0.282654 -5.940176 8.856634 19.185956 13.758030 0.000000 0.000000 0.000000 -4.480591 0.280762 -4.295210 5.203344 -0.708777 -0.779744 -2.288473 -7.731236 12.520367 0.000000 0.000000 0.000000 8.766564 -0.293080 0.170905 -5.033950 2.086400 -21.087940 -3.659712 -4.312665 29.105417 10.167882 -4.203025 -24.466628 0.000000 0.000000 0.000000 -12.548509 -14.300158 5.452134 -39.962942 -31.260942 3.119724 9.658445 -53.417040 -2.408497 0.000000 0.000000 0.000000 24.771823 -6.885005 -4.495677 54.650879 6.371898 -5.288565 9.613997 32.889631 4.868708 0.000000 0.000000 0.000000 
-0.001445 0.951423 0.009614 -1.945312 11.775920 3.602184 6.604468 -0.243509 4.047982 -4.409572 0.299443 -5.661596 9.316498 19.731645 13.410053 0.000000 0.000000 0.000000 -4.455598 0.294780 -4.369245 5.537235 -0.740118 -0.816690 -1.881687 -7.136345 12.810808 0.000000 0.000000 0.000000 9.037120 -0.299434 0.252874 -4.961338 2.049688 -21.182861 -3.562348 -4.377480 29.460727 10.024181 -4.232185 -24.480787 0.000000 0.000000 0.000000 -12.458420 -13.958951 5.438986 -39.522217 -31.068329 2.946315 10.987831 -52.979587 -2.916867 0.000000 0.000000 0.000000 24.957122 -6.439468 -4.457453 54.542026 6.405224 -5.267433 9.730309 33.063048 4.867858 0.000000 0.000000 0.000000 
-0.001659 0.951231 0.010268 -1.838032 11.202487 3.693404 6.537074 -0.227023 4.012116 -4.617214 0.315983 -5.469808 9.441557 19.912403 13.704283 0.000000 0.000000 0.000000 -4.363669 0.314813 -4.530541 5.378136 -0.711666 -0.717602 -1.662575 -6.756960 12.590829 0.000000 0.000000 0.000000 8.858888 -0.300018 0.337945 -4.626963 1.955688 -21.216175 -3.787035 -4.560622 29.240099 10.566942 -4.597325 -24.715386 0.000000 0.000000 0.000000 -12.153409 -14.032092 5.552852 -39.032958 -30.569286 2.733941 10.836051 -52.073955 -2.734757 0.000000 0.000000 0.000000 25.153419 -6.188276 -4.515919 54.624919 6.332488 -5.241632 9.978640 32.894835 4.848941 0.000000 0.000000 0.000000 
-0.001723 0.951135 0.010572 -2.019803 10.723152 3.554500 6.698427 -0.228973 4.117139 -4.663688 0.328070 -5.238341 9.631826 20.128103 13.362861 0.000000 0.000000 0.000000 -4.101035 0.341929 -4.745686 5.459647 -0.721222 -0.325973 -1.589380 -6.656067 12.440174 0.000000 0.000000 0.000000 8.972633 -0.318199 0.508447 -4.359638 1.881103 -21.220014 -3.991308 -5.041236 29.216915 10.867813 -4.888689 -24.840263 0.000000 0.000000 0.000000 -12.389703 -14.390690 5.876593 -38.082605 -30.280371 2.508915 11.088971 -50.448059 -2.684708 0.000000 0.000000 0.000000 25.205544 -5.516376 -4.357836 54.619094 6.638351 -5.059283 9.754845 32.055706 4.556335 0.000000 0.000000 0.000000 
-0.001543 0.950911 0.010616 -2.119658 10.378219 3.613043 6.713955 -0.224223 4.120150 -4.611917 0.331643 -5.191214 9.794714 20.348118 13.453200 0.000000 0.000000 0.000000 -3.963322 0.367239 -5.004943 5.383251 -0.706868 -0.235000 -1.421391 -6.384140 12.494775 0.000000 0.000000 0.000000 9.005116 -0.326600 0.571627 -4.232111 1.846915 -21.080592 -4.076122 -5.248054 28.990142 11.085752 -5.079106 -24.828344 0.000000 0.000000 0.000000 -12.015304 -14.951262 6.179455 -37.847342 -30.724973 2.639050 10.743691 -48.226267 -2.371632 0.000000 0.000000 0.000000 25.360359 -5.449451 -4.489310 54.786582 6.898008 -4.901232 9.348328 30.923125 4.215074 0.000000 0.000000 0.000000 
-0.001130 0.950868 0.010491 -2.247382 10.186752 3.518839 6.745362 -0.219276 4.324583 -4.587073 0.333764 -5.172678 9.998303 20.613886 13.427059 0.000000 0.000000 0.000000 -3.845909 0.380667 -5.127269 5.220978 -0.684056 -0.099327 -1.318341 -6.250156 12.709772 0.000000 0.000000 0.000000 8.987825 -0.336724 0.698296 -3.938732 1.767698 -21.146877 -4.354019 -5.773317 29.080115 11.193585 -5.195071 -25.119945 0.000000 0.000000 0.000000 -11.889994 -15.363691 6.469489 -37.367381 -30.815939 2.599835 10.906300 -46.495493 -2.300010 0.000000 0.000000 0.000000 25.413039 -4.812001 -4.305718 54.627757 7.089137 -4.772003 8.998232 30.090882 3.928304 0.000000 0.000000 0.000000 
-0.000478 0.950731 0.010275 -2.333383 9.839835 3.458741 6.797220 -0.212944 4.540303 -4.560285 0.335036 -5.345983 10.119612 20.784281 13.690257 0.000000 0.000000 0.000000 -3.813590 0.384720 -5.126045 5.177141 -0.672825 -0.161029 -1.048063 -5.791573 12.764870 0.000000 0.000000 0.000000 8.952610 -0.354927 0.899494 -3.828200 1.735391 -21.070691 -4.399572 -6.014153 29.037197 11.217370 -5.226190 -25.362006 0.000000 0.000000 0.000000 -11.838243 -15.676447 6.689995 -37.303961 -31.156720 2.702472 10.728114 -45.213819 -2.113330 0.000000 0.000000 0.000000 25.296726 -4.545537 -4.283719 54.721202 7.274956 -4.651674 8.931989 29.320285 3.751682 0.000000 0.000000 0.000000 
0.000334 0.950801 0.010127 -2.332951 9.477115 3.439431 6.667831 -0.190475 4.705832 -4.539812 0.335733 -5.590491 10.257496 20.971319 13.867840 0.000000 0.000000 0.000000 -3.875171 0.382787 -5.086930 5.080709 -0.654566 -0.226589 -0.676571 -5.144502 12.827866 0.000000 0.000000 0.000000 8.886428 -0.350972 0.919572 -3.760505 1.713903 -20.988016 -4.509094 -6.310000 29.190187 11.296433 -5.363784 -25.372416 0.000000 0.000000 0.000000 -11.713266 -15.851795 6.852464 -37.200025 -31.013061 2.632952 11.148451 -44.846778 -2.210038 0.000000 0.000000 0.000000 25.308729 -4.097430 -4.181132 54.383159 7.438958 -4.538867 8.822651 29.002743 3.630129 0.000000 0.000000 0.000000 
